<?xml version="1.0" standalone="no"?>
<!DOCTYPE svg PUBLIC "-//W3C//DTD SVG 20010904//EN"
 "http://www.w3.org/TR/2001/REC-SVG-20010904/DTD/svg10.dtd">
<svg version="1.0" xmlns="http://www.w3.org/2000/svg"
 width="460.000000pt" height="491.000000pt" viewBox="0 0 460.000000 491.000000"
 preserveAspectRatio="xMidYMid meet">

<g transform="translate(0.000000,491.000000) scale(0.100000,-0.100000)"
fill="#000000" stroke="none">
<path d="M2165 4334 c-88 -256 -163 -468 -168 -471 -4 -2 -165 138 -358 312
-193 174 -352 315 -354 313 -2 -2 27 -220 66 -483 38 -264 68 -489 67 -500 -3
-20 -16 -19 -446 58 -244 44 -445 77 -448 74 -3 -3 123 -180 279 -393 157
-214 283 -392 281 -395 -2 -3 -192 -86 -424 -184 -231 -99 -420 -182 -420
-185 0 -3 189 -86 420 -185 232 -98 423 -181 425 -184 2 -4 -113 -166 -256
-361 -143 -195 -273 -373 -289 -396 l-28 -40 176 31 c554 100 722 128 729 122
4 -4 -25 -229 -64 -500 -40 -270 -70 -493 -68 -495 2 -2 162 139 355 313 193
175 355 314 359 309 4 -5 79 -217 167 -471 87 -255 161 -463 164 -463 3 0 77
208 164 463 88 254 163 466 167 471 4 5 166 -134 359 -309 193 -174 353 -315
355 -313 2 2 -27 220 -66 483 -38 264 -68 489 -67 500 3 20 17 18 446 -58 244
-44 445 -77 448 -74 3 3 -123 180 -280 393 -157 214 -285 391 -285 394 -1 3
191 86 424 185 234 99 425 182 425 185 0 3 -185 84 -411 180 -227 96 -418 180
-425 185 -10 8 55 103 277 404 159 217 289 395 289 396 0 0 -205 -35 -455 -80
-440 -78 -455 -80 -455 -61 0 12 32 237 70 500 38 264 68 481 66 483 -2 2
-160 -137 -351 -309 -191 -172 -352 -313 -357 -313 -6 0 -83 210 -172 467 -88
257 -163 468 -166 468 -3 0 -77 -210 -165 -466z m-549 -1079 c73 -30 109 -139
102 -310 -10 -213 -77 -281 -260 -261 -33 3 -64 8 -69 12 -15 9 -12 551 4 561
38 24 164 23 223 -2z m654 -164 c14 -10 31 -30 38 -45 15 -30 34 -145 26 -158
-3 -4 -50 -8 -105 -8 -111 0 -111 0 -89 -82 14 -48 33 -58 110 -58 46 0 62 -4
67 -16 10 -26 -12 -36 -84 -41 -123 -8 -173 41 -181 176 -10 182 47 271 163
254 17 -3 41 -12 55 -22z m350 5 c47 -22 55 -56 55 -241 l0 -170 -33 -3 c-21
-2 -34 2 -38 12 -5 12 -10 13 -39 0 -97 -40 -175 9 -175 110 0 91 46 131 144
124 l56 -3 0 52 c0 68 -20 83 -107 83 -56 0 -63 2 -63 20 0 14 9 21 38 25 20
4 42 8 47 10 16 6 87 -6 115 -19z m349 8 c27 -11 45 -13 58 -6 39 21 97 23
133 5 55 -28 60 -48 60 -240 l0 -173 -40 0 -40 0 0 165 c0 153 -1 166 -21 186
-14 14 -30 19 -52 17 l-32 -3 -3 -182 -2 -183 -40 0 -40 0 0 167 c0 180 -6
203 -56 203 -54 0 -54 2 -54 -191 l0 -179 -40 0 -40 0 2 208 3 207 28 3 c16 2
35 -2 43 -9 9 -8 18 -8 27 -1 10 8 34 17 59 21 4 0 25 -6 47 -15z m-1092 -9
c7 -12 14 -12 48 0 22 8 50 14 63 15 19 0 22 -5 22 -35 0 -35 0 -35 -46 -35
-85 0 -84 2 -84 -185 l0 -165 -40 0 -40 0 0 203 c0 112 3 207 7 210 12 13 62
7 70 -8z m235 -741 c37 -19 57 -51 64 -105 7 -52 -13 -111 -45 -130 -19 -13
-19 -14 10 -31 43 -26 62 -78 57 -160 -3 -57 -8 -72 -32 -97 -38 -40 -99 -55
-196 -48 -43 3 -83 8 -89 12 -17 10 -15 551 2 562 39 24 179 22 229 -3z m248
-54 l0 -50 -40 0 -40 0 0 50 0 50 40 0 40 0 0 -50z m350 -104 l25 -11 0 -210
c0 -229 -6 -263 -53 -308 -32 -31 -96 -43 -166 -33 -40 6 -46 10 -46 32 0 23
3 24 69 24 63 0 71 2 90 26 12 16 21 41 21 61 0 30 -3 34 -17 28 -35 -15 -84
-17 -115 -4 -85 35 -105 286 -29 371 14 16 42 33 61 38 41 10 125 3 160 -14z
m-352 -198 l2 -208 -40 0 -40 0 0 211 0 210 38 -3 37 -3 3 -207z"/>
<path d="M1470 2980 l0 -240 44 0 c92 0 121 55 121 235 0 186 -33 245 -135
245 l-30 0 0 -240z"/>
<path d="M2151 3041 c-6 -10 -13 -37 -17 -60 l-7 -41 63 0 63 0 -5 45 c-3 25
-11 52 -18 60 -18 21 -67 19 -79 -4z"/>
<path d="M2490 2860 c-24 -24 -27 -82 -4 -104 9 -10 33 -16 60 -16 l44 0 0 70
0 70 -40 0 c-27 0 -47 -7 -60 -20z"/>
<path d="M1960 2226 l0 -96 44 0 c65 0 91 25 91 89 0 64 -22 88 -88 97 l-47 7
0 -97z"/>
<path d="M1960 1956 l0 -116 55 0 c46 0 60 4 80 25 21 20 25 34 25 84 0 84
-25 112 -103 119 l-57 4 0 -116z"/>
<path d="M2552 2135 c-36 -46 -40 -209 -6 -262 12 -18 24 -23 59 -23 l45 0 0
155 0 155 -39 0 c-30 0 -44 -6 -59 -25z"/>
</g>
</svg>
